<svg width="24" height="24" viewBox="0 0 24 24" fill="none" xmlns="http://www.w3.org/2000/svg">
<path d="M0 6V18H24V6H0ZM22 16H2V8H22V16ZM7.187 11.952L6.97 11.333L6.312 11.583V10.875H5.669V11.581L5.029 11.332L4.812 11.951L5.473 12.174L5.051 12.733L5.588 13.125L5.986 12.539L6.407 13.124L6.935 12.732L6.514 12.174L7.187 11.952V11.952ZM11.187 11.952L10.97 11.333L10.312 11.583V10.875H9.669V11.581L9.029 11.332L8.812 11.951L9.473 12.174L9.051 12.733L9.588 13.125L9.986 12.539L10.407 13.124L10.935 12.732L10.514 12.174L11.187 11.952V11.952ZM15.187 11.952L14.97 11.333L14.312 11.583V10.875H13.669V11.581L13.029 11.332L12.812 11.951L13.473 12.174L13.051 12.733L13.588 13.125L13.986 12.539L14.407 13.124L14.935 12.732L14.514 12.174L15.187 11.952V11.952ZM19.187 11.952L18.97 11.333L18.312 11.583V10.875H17.669V11.581L17.029 11.332L16.812 11.951L17.473 12.174L17.051 12.733L17.588 13.125L17.986 12.539L18.407 13.124L18.935 12.732L18.514 12.174L19.187 11.952Z" fill="white"/>
</svg>
