<svg width="24" height="24" viewBox="0 0 24 24" fill="none" xmlns="http://www.w3.org/2000/svg">
<path d="M19.3911 17.097C19.7421 17.21 19.9171 17.595 19.7761 17.93C19.6411 18.249 19.2811 18.412 18.9491 18.304C16.3321 17.449 14.5921 16.23 13.6641 14.611C13.4871 14.303 13.5961 13.911 13.9071 13.736C14.2181 13.561 14.6141 13.669 14.7901 13.977C15.5601 15.318 17.0751 16.349 19.3911 17.097V17.097ZM10.8011 16.486C9.95209 16.977 8.53009 17.801 5.57409 18.672C5.16409 18.793 4.97709 19.263 5.19209 19.628C5.31609 19.857 5.61409 20 5.90909 19.913C8.61209 19.12 10.1121 18.356 11.0511 17.826C11.9841 17.3 12.0711 17.291 12.9551 17.936C13.8111 18.562 15.2651 19.473 17.8491 20.413C18.1451 20.52 18.4601 20.388 18.5961 20.164C18.8251 19.814 18.6671 19.343 18.2721 19.199C15.1891 18.075 13.8461 17.013 13.1781 16.484C12.3121 15.799 12.0221 15.779 10.8011 16.486V16.486ZM10.5381 19.554C9.90009 19.882 8.93809 20.376 7.28709 20.947C7.07209 21.021 6.91209 21.199 6.86209 21.419C6.75409 21.894 7.20509 22.334 7.65209 22.181C9.42409 21.574 10.4551 21.043 11.1341 20.694C11.6521 20.427 11.9691 20.373 12.5631 20.693C13.3151 21.097 14.5011 21.735 16.1561 22.398C16.6241 22.586 17.1011 22.172 17.0121 21.684C16.9721 21.463 16.8211 21.279 16.6111 21.194C15.0331 20.559 13.9001 19.95 13.1801 19.563C12.0471 18.954 11.9151 18.846 10.5381 19.554V19.554ZM9.84409 22.804C9.61609 22.91 9.47509 23.141 9.48609 23.39C9.50309 23.777 9.85409 24 10.1791 24C10.2701 24 10.3601 23.982 10.4391 23.945C12.1391 23.153 11.5491 23.105 13.4661 23.95C13.5421 23.984 13.6271 24 13.7161 24C14.0361 24 14.3931 23.788 14.4141 23.397C14.4281 23.141 14.2801 22.904 14.0441 22.8C11.5481 21.705 12.2171 21.704 9.84409 22.804V22.804ZM12.1981 8.598C12.3371 8.271 12.1811 7.894 11.8521 7.757C11.5221 7.62 11.1431 7.773 11.0041 8.1C9.94609 10.598 7.27309 12.524 3.75109 13.373C3.41609 13.454 3.20009 13.777 3.25609 14.114C3.31609 14.475 3.67309 14.712 4.03609 14.625C7.50509 13.792 10.8201 11.852 12.1981 8.598ZM12.8451 12.734C13.6671 11.802 14.3211 10.769 14.7891 9.663C15.2591 8.552 15.1781 7.432 14.5611 6.51C13.9151 5.546 12.7461 4.947 11.5101 4.947C10.8121 4.947 10.1401 5.139 9.56609 5.502C8.93909 5.9 8.44409 6.497 8.13409 7.228C7.48709 8.755 5.79009 9.983 3.48009 10.639C3.19209 10.721 2.99509 10.984 3.00009 11.282C3.00709 11.698 3.41009 11.993 3.81309 11.879C6.51309 11.113 8.52709 9.616 9.32809 7.726C9.77209 6.676 10.6501 6.232 11.5101 6.232C12.9381 6.232 14.3201 7.456 13.5951 9.167C12.0661 12.779 8.48509 15.104 4.43809 16.125C4.26009 16.17 4.10809 16.287 4.02109 16.448C3.93409 16.609 3.91709 16.799 3.97709 16.971C4.08409 17.281 4.41309 17.456 4.73209 17.376C6.71609 16.877 8.55109 16.096 10.1041 15.082C11.1521 14.397 12.0741 13.608 12.8451 12.734V12.734ZM7.02609 6.534C7.31909 6.033 7.59709 5.56 8.07509 5.12C9.20509 4.079 10.7371 3.577 12.2791 3.741C13.7321 3.896 15.0131 4.623 15.7931 5.734C16.8731 7.273 16.6021 8.801 16.3401 10.278C16.1151 11.541 15.8841 12.847 16.6031 13.99C17.1461 14.853 18.1741 15.508 19.7801 15.996C20.1191 16.099 20.4791 15.898 20.5651 15.557C20.6521 15.212 20.4521 14.861 20.1091 14.755C18.8631 14.373 18.0691 13.895 17.7021 13.311C17.2451 12.585 17.4171 11.62 17.6151 10.501C17.8941 8.93 18.2401 6.975 16.8561 5.001C15.8621 3.584 14.2451 2.66 12.4181 2.465C10.5041 2.26 8.60009 2.885 7.19509 4.18C6.57509 4.749 6.22009 5.354 5.90709 5.888C5.41409 6.728 4.99809 7.434 3.59509 7.893C3.37309 7.966 3.19709 8.154 3.16009 8.433C3.10009 8.893 3.54609 9.26 3.99209 9.115C5.87109 8.501 6.45609 7.504 7.02609 6.534V6.534ZM4.96609 4.844L5.35309 4.272C6.90209 2.055 9.63909 0.968 12.6761 1.363C15.5621 1.739 17.9321 3.377 18.7131 5.536C19.4051 7.45 19.1321 8.995 18.9121 10.237C18.7221 11.309 18.5581 12.236 19.1321 12.979C19.3651 13.281 19.6971 13.514 20.1531 13.689C20.5331 13.835 20.9491 13.584 20.9951 13.184C21.0301 12.882 20.8581 12.594 20.5751 12.477C20.3801 12.397 20.2411 12.304 20.1591 12.198C19.9301 11.903 20.0431 11.265 20.1861 10.459C20.4191 9.141 20.7391 7.336 19.9311 5.102C18.8011 1.979 15.1851 0 11.4771 0C9.01109 0 6.61709 0.882 4.92409 2.746C4.49709 3.224 4.23409 3.569 3.97909 4.155C3.81209 4.537 3.87709 4.813 4.15709 5.003C4.43209 5.19 4.78409 5.118 4.96609 4.844Z" fill="white"/>
</svg>
