<svg width="96" height="128" viewBox="0 0 96 128" fill="none" xmlns="http://www.w3.org/2000/svg">
<path d="M35.1299 48.8883V34.7317C35.1299 25.6003 42.18 18.1328 50.6598 18.6105C58.4337 19.0488 64.6278 25.9877 64.6278 34.4549C64.6278 35.2674 64.9278 36.0465 65.4619 36.621C65.996 37.1955 66.7203 37.5183 67.4756 37.5183H79.442C79.7662 37.5183 80.0872 37.4496 80.3868 37.3161C80.6863 37.1826 80.9585 36.987 81.1878 36.7404C81.417 36.4938 81.5989 36.201 81.7229 35.8788C81.847 35.5566 81.9109 35.2112 81.9109 34.8625C81.9109 15.526 67.2781 -0.337685 49.3052 0.00546435C31.9087 0.337079 17.8522 15.6634 17.8522 34.4549V60.6957L17.846 67.453C17.8453 68.2655 18.1446 69.0451 18.6781 69.6203C19.2117 70.1954 19.9357 70.5191 20.6911 70.5201L75.3763 70.5673C76.1308 70.5678 76.8543 70.8903 77.3879 71.4641C77.9215 72.038 78.2216 72.8161 78.2223 73.6277V106.346C78.2223 107.159 77.9223 107.938 77.3882 108.512C76.8542 109.087 76.1298 109.409 75.3745 109.409H20.129C19.3739 109.409 18.6498 109.086 18.1159 108.512C17.5821 107.937 17.2822 107.158 17.2822 106.346V89.0204C17.2823 88.618 17.2087 88.2196 17.0656 87.8478C16.9226 87.476 16.7128 87.1382 16.4484 86.8537C16.1839 86.5691 15.87 86.3434 15.5244 86.1894C15.1788 86.0354 14.8085 85.9561 14.4344 85.9561H2.84864C2.09313 85.9561 1.36857 86.2789 0.834347 86.8536C0.300123 87.4283 0 88.2077 0 89.0204V124.937C-1.84133e-08 125.339 0.0736882 125.737 0.216857 126.109C0.360025 126.481 0.569869 126.819 0.834401 127.103C1.09893 127.388 1.41297 127.613 1.75858 127.767C2.10419 127.921 2.47459 128 2.84864 128H92.6585C93.4138 128 94.1381 127.677 94.6721 127.103C95.2062 126.528 95.5062 125.749 95.5062 124.937V55.0631C95.5062 54.2511 95.2066 53.4724 94.6731 52.898C94.1396 52.3236 93.416 52.0005 92.6612 51.9997L37.9759 51.9517C37.2209 51.9512 36.4971 51.6282 35.9634 51.0538C35.4297 50.4793 35.1299 49.7004 35.1299 48.8883Z" fill="black"/>
<path d="M35.1299 48.8883V34.7317C35.1299 25.6003 42.18 18.1328 50.6598 18.6105C58.4337 19.0488 64.6278 25.9877 64.6278 34.4549C64.6278 35.2674 64.9278 36.0465 65.4619 36.621C65.996 37.1955 66.7203 37.5183 67.4756 37.5183H79.442C79.7662 37.5183 80.0872 37.4496 80.3868 37.3161C80.6863 37.1826 80.9585 36.987 81.1878 36.7404C81.417 36.4938 81.5989 36.201 81.7229 35.8788C81.847 35.5566 81.9109 35.2112 81.9109 34.8625C81.9109 15.526 67.2781 -0.337685 49.3052 0.00546435C31.9087 0.337079 17.8522 15.6634 17.8522 34.4549V60.6957L17.846 67.453C17.8453 68.2655 18.1446 69.0451 18.6781 69.6203C19.2117 70.1954 19.9357 70.5191 20.6911 70.5201L75.3763 70.5673C76.1308 70.5678 76.8543 70.8903 77.3879 71.4641C77.9215 72.038 78.2216 72.8161 78.2223 73.6277V106.346C78.2223 107.159 77.9223 107.938 77.3882 108.512C76.8542 109.087 76.1298 109.409 75.3745 109.409H20.129C19.3739 109.409 18.6498 109.086 18.1159 108.512C17.5821 107.937 17.2822 107.158 17.2822 106.346V89.0204C17.2823 88.618 17.2087 88.2196 17.0656 87.8478C16.9226 87.476 16.7128 87.1382 16.4484 86.8537C16.1839 86.5691 15.87 86.3434 15.5244 86.1894C15.1788 86.0354 14.8085 85.9561 14.4344 85.9561H2.84864C2.09313 85.9561 1.36857 86.2789 0.834347 86.8536C0.300123 87.4283 0 88.2077 0 89.0204V124.937C-1.84133e-08 125.339 0.0736882 125.737 0.216857 126.109C0.360025 126.481 0.569869 126.819 0.834401 127.103C1.09893 127.388 1.41297 127.613 1.75858 127.767C2.10419 127.921 2.47459 128 2.84864 128H92.6585C93.4138 128 94.1381 127.677 94.6721 127.103C95.2062 126.528 95.5062 125.749 95.5062 124.937V55.0631C95.5062 54.2511 95.2066 53.4724 94.6731 52.898C94.1396 52.3236 93.416 52.0005 92.6612 51.9997L37.9759 51.9517C37.2209 51.9512 36.4971 51.6282 35.9634 51.0538C35.4297 50.4793 35.1299 49.7004 35.1299 48.8883Z" fill="black"/>
<path d="M52.191 95.0506C54.7858 92.4557 54.7858 88.2486 52.191 85.6538C49.5961 83.0589 45.389 83.0589 42.7942 85.6538C40.1993 88.2486 40.1993 92.4557 42.7942 95.0506C45.389 97.6454 49.5961 97.6454 52.191 95.0506Z" fill="black"/>
<path d="M47.492 99.0377C45.4822 99.0363 43.5351 98.338 41.9824 97.062C40.4297 95.7859 39.3675 94.0109 38.9767 92.0395C38.586 90.0681 38.8908 88.0222 39.8394 86.2503C40.7879 84.4784 42.3215 83.0903 44.1787 82.3223C46.036 81.5544 48.1021 81.4541 50.025 82.0387C51.9479 82.6232 53.6086 83.8564 54.7242 85.5281C55.8399 87.1998 56.3414 89.2066 56.1433 91.2066C55.9452 93.2066 55.0599 95.076 53.638 96.4964C52.8315 97.304 51.8733 97.9443 50.8186 98.3804C49.7639 98.8165 48.6333 99.0399 47.492 99.0377ZM47.492 85.7539C46.4288 85.7535 45.3983 86.1218 44.5761 86.7959C43.7539 87.47 43.1908 88.4083 42.9827 89.4509C42.7747 90.4936 42.9345 91.5761 43.435 92.5142C43.9355 93.4522 44.7457 94.1878 45.7277 94.5955C46.7096 95.0032 47.8025 95.0579 48.8203 94.7502C49.838 94.4426 50.7176 93.7917 51.3093 92.9083C51.901 92.0249 52.1681 90.9637 52.0652 89.9055C51.9623 88.8472 51.4957 87.8574 50.7449 87.1046C50.3184 86.6764 49.8114 86.3368 49.2531 86.1053C48.6949 85.8738 48.0963 85.755 47.492 85.7557V85.7539Z" fill="black"/>
</svg>
