<svg width="88" height="100" viewBox="0 0 88 100" fill="none" xmlns="http://www.w3.org/2000/svg">
<path d="M37.429 25.742V18.2879C37.429 13.4798 41.1412 9.54776 45.6063 9.7993C49.6996 10.0301 52.9611 13.6838 52.9611 18.1422C52.9611 18.57 53.119 18.9802 53.4002 19.2827C53.6815 19.5852 54.0629 19.7552 54.4605 19.7552H60.7614C60.9321 19.7552 61.1012 19.719 61.2589 19.6487C61.4166 19.5784 61.5599 19.4754 61.6807 19.3456C61.8014 19.2157 61.8971 19.0616 61.9625 18.8919C62.0278 18.7222 62.0614 18.5404 62.0614 18.3568C62.0614 8.17517 54.3566 -0.177807 44.893 0.00287724C35.7329 0.177488 28.3315 8.24754 28.3315 18.1422L28.3282 35.5172C28.3278 35.945 28.4854 36.3555 28.7664 36.6584C29.0473 36.9612 29.4285 37.1317 29.8263 37.1322L58.6207 37.157C59.0179 37.1573 59.3989 37.3271 59.6799 37.6293C59.9608 37.9314 60.1188 38.3411 60.1192 38.7685V55.9963C60.1192 56.4241 59.9612 56.8343 59.68 57.1368C59.3988 57.4393 59.0174 57.6093 58.6197 57.6093H29.5303C29.1327 57.6091 28.7514 57.4391 28.4703 57.1367C28.1892 56.8342 28.0313 56.424 28.0313 55.9963V46.8735C28.0314 46.6616 27.9926 46.4518 27.9173 46.2561C27.842 46.0603 27.7315 45.8824 27.5923 45.7326C27.453 45.5828 27.2877 45.4639 27.1058 45.3828C26.9238 45.3017 26.7288 45.26 26.5318 45.26H20.4314C20.0336 45.26 19.652 45.43 19.3708 45.7326C19.0895 46.0352 18.9314 46.4456 18.9314 46.8735V65.7851C18.9314 65.997 18.9702 66.2068 19.0456 66.4025C19.121 66.5982 19.2315 66.7761 19.3708 66.9258C19.5101 67.0756 19.6754 67.1944 19.8574 67.2755C20.0394 67.3565 20.2344 67.3982 20.4314 67.3981H67.7206C68.1182 67.3981 68.4996 67.2282 68.7808 66.9257C69.062 66.6232 69.22 66.2129 69.22 65.7851V28.9933C69.22 28.5658 69.0622 28.1558 68.7813 27.8533C68.5004 27.5509 68.1194 27.3807 67.722 27.3803L38.9276 27.355C38.53 27.3548 38.1489 27.1847 37.8679 26.8822C37.5869 26.5798 37.429 26.1696 37.429 25.742Z" fill="white"/>
<path d="M37.429 25.742V18.2879C37.429 13.4798 41.1412 9.54776 45.6063 9.7993C49.6996 10.0301 52.9611 13.6838 52.9611 18.1422C52.9611 18.57 53.119 18.9802 53.4002 19.2827C53.6815 19.5852 54.0629 19.7552 54.4605 19.7552H60.7614C60.9321 19.7552 61.1012 19.719 61.2589 19.6487C61.4166 19.5784 61.5599 19.4754 61.6807 19.3456C61.8014 19.2157 61.8971 19.0616 61.9625 18.8919C62.0278 18.7222 62.0614 18.5404 62.0614 18.3568C62.0614 8.17517 54.3566 -0.177807 44.893 0.00287724C35.7329 0.177488 28.3315 8.24754 28.3315 18.1422L28.3282 35.5172C28.3278 35.945 28.4854 36.3555 28.7664 36.6584C29.0473 36.9612 29.4285 37.1317 29.8263 37.1322L58.6207 37.157C59.0179 37.1573 59.3989 37.3271 59.6799 37.6293C59.9608 37.9314 60.1188 38.3411 60.1192 38.7685V55.9963C60.1192 56.4241 59.9612 56.8343 59.68 57.1368C59.3988 57.4393 59.0174 57.6093 58.6197 57.6093H29.5303C29.1327 57.6091 28.7514 57.4391 28.4703 57.1367C28.1892 56.8342 28.0313 56.424 28.0313 55.9963V46.8735C28.0314 46.6616 27.9926 46.4518 27.9173 46.2561C27.842 46.0603 27.7315 45.8824 27.5923 45.7326C27.453 45.5828 27.2877 45.4639 27.1058 45.3828C26.9238 45.3017 26.7288 45.26 26.5318 45.26H20.4314C20.0336 45.26 19.652 45.43 19.3708 45.7326C19.0895 46.0352 18.9314 46.4456 18.9314 46.8735V65.7851C18.9314 65.997 18.9702 66.2068 19.0456 66.4025C19.121 66.5982 19.2315 66.7761 19.3708 66.9258C19.5101 67.0756 19.6754 67.1944 19.8574 67.2755C20.0394 67.3565 20.2344 67.3982 20.4314 67.3981H67.7206C68.1182 67.3981 68.4996 67.2282 68.7808 66.9257C69.062 66.6232 69.22 66.2129 69.22 65.7851V28.9933C69.22 28.5658 69.0622 28.1558 68.7813 27.8533C68.5004 27.5509 68.1194 27.3807 67.722 27.3803L38.9276 27.355C38.53 27.3548 38.1489 27.1847 37.8679 26.8822C37.5869 26.5798 37.429 26.1696 37.429 25.742Z" fill="white"/>
<path d="M46.4125 50.0486C47.7788 48.6823 47.7788 46.4671 46.4125 45.1008C45.0462 43.7345 42.8309 43.7345 41.4646 45.1008C40.0983 46.4671 40.0983 48.6823 41.4646 50.0486C42.8309 51.415 45.0462 51.415 46.4125 50.0486Z" fill="white"/>
<path d="M43.9382 52.1481C42.88 52.1473 41.8548 51.7796 41.0372 51.1077C40.2196 50.4358 39.6603 49.5012 39.4546 48.4632C39.2488 47.4251 39.4093 46.3478 39.9088 45.4149C40.4082 44.4819 41.2157 43.751 42.1937 43.3466C43.1716 42.9422 44.2595 42.8895 45.272 43.1973C46.2845 43.505 47.1589 44.1544 47.7464 45.0346C48.3338 45.9148 48.5979 46.9715 48.4936 48.0246C48.3893 49.0777 47.9231 50.062 47.1744 50.81C46.7497 51.2352 46.2452 51.5723 45.6899 51.802C45.1345 52.0316 44.5392 52.1492 43.9382 52.1481ZM43.9382 45.1535C43.3784 45.1533 42.8358 45.3472 42.4029 45.7021C41.9699 46.0571 41.6734 46.5511 41.5639 47.1002C41.4543 47.6492 41.5385 48.2192 41.802 48.7131C42.0656 49.207 42.4922 49.5943 43.0092 49.809C43.5263 50.0237 44.1018 50.0525 44.6376 49.8905C45.1735 49.7285 45.6367 49.3858 45.9482 48.9206C46.2598 48.4555 46.4004 47.8967 46.3462 47.3395C46.2921 46.7823 46.0464 46.2611 45.651 45.8647C45.4265 45.6393 45.1595 45.4604 44.8656 45.3386C44.5716 45.2167 44.2565 45.1541 43.9382 45.1545V45.1535Z" fill="white"/>
<path d="M5.18453 89.2209C5.18453 88.6936 5.65319 88.4007 6.41476 88.4007C7.38137 88.4007 7.9672 88.9279 8.37727 89.6895L12.1265 87.6684C10.8963 85.5888 8.78735 84.5343 6.41476 84.5343C3.36848 84.5343 0.673697 86.1453 0.673697 89.338C0.673697 94.4054 7.87932 93.5559 7.87932 95.167C7.87932 95.7528 7.35208 96.075 6.2976 96.075C5.00879 96.075 4.18864 95.4599 3.80785 94.3468L0 96.5144C1.14236 98.8869 3.36848 100 6.2976 100C9.46104 100 12.3902 98.5647 12.3902 95.1963C12.3902 89.7774 5.18453 90.8905 5.18453 89.2209Z" fill="white"/>
<path d="M28.6435 99.5899L23.1661 92.2671L28.4971 84.9444H23.3711L18.9775 91.3591V79.0861H14.5838V99.5899H18.9775V93.1166L23.6641 99.5899H28.6435Z" fill="white"/>
<path d="M32.456 83.6555C33.8912 83.6555 35.0922 82.4546 35.0922 81.0193C35.0922 79.5841 33.8912 78.3831 32.456 78.3831C31.0207 78.3831 29.8198 79.5841 29.8198 81.0193C29.8198 82.4546 31.0207 83.6555 32.456 83.6555ZM30.2591 99.5899H34.6528V84.9444H30.2591V99.5899Z" fill="white"/>
<path d="M43.3161 95.4892L48.8522 87.8735V84.9444H37.7215V89.0451H42.9646L37.4286 96.6608V99.5899H49.1451V95.4892H43.3161Z" fill="white"/>
<path d="M56.9319 95.4892L62.468 87.8735V84.9444H51.3373V89.0451H56.5804L51.0444 96.6608V99.5899H62.7609V95.4892H56.9319Z" fill="white"/>
<path d="M65.3856 99.5899H69.7793V78.2074H65.3856V99.5899Z" fill="white"/>
<path d="M76.9195 94.0246H87.3179C87.435 93.4681 87.4936 92.8823 87.4936 92.2671C87.4936 87.8442 84.3302 84.5343 80.0536 84.5343C75.4256 84.5343 72.2622 87.9028 72.2622 92.2671C72.2622 96.6315 75.3671 100 80.3758 100C83.1585 100 85.3261 98.9748 86.7613 96.983L83.2464 94.9619C82.6606 95.6063 81.6354 96.075 80.4344 96.075C78.8234 96.075 77.476 95.5477 76.9195 94.0246ZM76.8316 90.744C77.2417 89.2502 78.3548 88.43 80.0244 88.43C81.3425 88.43 82.6606 89.0451 83.1292 90.744H76.8316Z" fill="white"/>
</svg>
