<svg width="1012" height="323" viewBox="0 0 1012 323" fill="none" xmlns="http://www.w3.org/2000/svg">
<path d="M88.6957 123.037V87.4089C88.6957 64.428 106.439 45.6345 127.78 46.8368C147.344 47.9398 162.933 65.4029 162.933 86.7122C162.933 88.7569 163.688 90.7179 165.032 92.1637C166.376 93.6095 168.199 94.4218 170.1 94.4218H200.215C201.031 94.4218 201.839 94.2489 202.593 93.913C203.347 93.5771 204.032 93.0848 204.609 92.4641C205.186 91.8435 205.643 91.1066 205.956 90.2957C206.268 89.4848 206.429 88.6157 206.429 87.7379C206.429 39.074 169.603 -0.849846 124.37 0.0137521C80.5889 0.848322 45.2132 39.42 45.2132 86.7122V152.752L45.1974 169.758C45.1956 171.803 45.9489 173.765 47.2917 175.212C48.6344 176.66 50.4566 177.475 52.3576 177.477L189.983 177.596C191.882 177.597 193.703 178.409 195.046 179.853C196.389 181.297 197.144 183.255 197.146 185.298V267.64C197.146 269.684 196.391 271.645 195.047 273.091C193.703 274.537 191.88 275.349 189.979 275.349H50.9431C49.0427 275.349 47.2204 274.536 45.8768 273.09C44.5332 271.645 43.7785 269.684 43.7785 267.64V224.036C43.7788 223.024 43.5936 222.021 43.2336 221.085C42.8735 220.15 42.3456 219.3 41.6801 218.583C41.0146 217.867 40.2244 217.299 39.3547 216.912C38.4851 216.524 37.5529 216.325 36.6116 216.325H7.4538C5.55243 216.325 3.72893 217.137 2.38446 218.583C1.03998 220.03 0.284668 221.991 0.284668 224.036V314.426C0.284668 315.439 0.470118 316.442 0.830428 317.377C1.19074 318.313 1.71885 319.163 2.38459 319.879C3.05034 320.595 3.84068 321.163 4.71046 321.55C5.58025 321.937 6.51244 322.136 7.4538 322.136H233.477C235.378 322.136 237.201 321.324 238.545 319.878C239.889 318.432 240.644 316.471 240.644 314.426V138.577C240.644 136.533 239.89 134.573 238.547 133.128C237.205 131.682 235.383 130.869 233.484 130.867L95.8581 130.746C93.9581 130.745 92.1363 129.932 90.7933 128.486C89.4502 127.041 88.6957 125.08 88.6957 123.037Z" fill="black"/>
<path d="M88.6957 123.037V87.4089C88.6957 64.428 106.439 45.6345 127.78 46.8368C147.344 47.9398 162.933 65.4029 162.933 86.7122C162.933 88.7569 163.688 90.7179 165.032 92.1637C166.376 93.6095 168.199 94.4218 170.1 94.4218H200.215C201.031 94.4218 201.839 94.2489 202.593 93.913C203.347 93.5771 204.032 93.0848 204.609 92.4641C205.186 91.8435 205.643 91.1066 205.956 90.2957C206.268 89.4848 206.429 88.6157 206.429 87.7379C206.429 39.074 169.603 -0.849846 124.37 0.0137521C80.5889 0.848322 45.2132 39.42 45.2132 86.7122V152.752L45.1974 169.758C45.1956 171.803 45.9489 173.765 47.2917 175.212C48.6344 176.66 50.4566 177.475 52.3576 177.477L189.983 177.596C191.882 177.597 193.703 178.409 195.046 179.853C196.389 181.297 197.144 183.255 197.146 185.298V267.64C197.146 269.684 196.391 271.645 195.047 273.091C193.703 274.537 191.88 275.349 189.979 275.349H50.9431C49.0427 275.349 47.2204 274.536 45.8768 273.09C44.5332 271.645 43.7785 269.684 43.7785 267.64V224.036C43.7788 223.024 43.5936 222.021 43.2336 221.085C42.8735 220.15 42.3456 219.3 41.6801 218.583C41.0146 217.867 40.2244 217.299 39.3547 216.912C38.4851 216.524 37.5529 216.325 36.6116 216.325H7.4538C5.55243 216.325 3.72893 217.137 2.38446 218.583C1.03998 220.03 0.284668 221.991 0.284668 224.036V314.426C0.284668 315.439 0.470118 316.442 0.830428 317.377C1.19074 318.313 1.71885 319.163 2.38459 319.879C3.05034 320.595 3.84068 321.163 4.71046 321.55C5.58025 321.937 6.51244 322.136 7.4538 322.136H233.477C235.378 322.136 237.201 321.324 238.545 319.878C239.889 318.432 240.644 316.471 240.644 314.426V138.577C240.644 136.533 239.89 134.573 238.547 133.128C237.205 131.682 235.383 130.869 233.484 130.867L95.8581 130.746C93.9581 130.745 92.1363 129.932 90.7933 128.486C89.4502 127.041 88.6957 125.08 88.6957 123.037Z" fill="black"/>
<path d="M131.633 239.212C138.163 232.682 138.163 222.094 131.633 215.564C125.102 209.033 114.515 209.033 107.984 215.564C101.454 222.094 101.454 232.682 107.984 239.212C114.515 245.743 125.102 245.743 131.633 239.212Z" fill="black"/>
<path d="M119.807 249.247C114.749 249.243 109.849 247.486 105.941 244.275C102.034 241.063 99.3604 236.596 98.377 231.635C97.3936 226.673 98.1608 221.524 100.548 217.065C102.935 212.606 106.795 209.112 111.469 207.179C116.143 205.247 121.343 204.994 126.182 206.466C131.021 207.937 135.201 211.04 138.009 215.247C140.816 219.454 142.078 224.505 141.58 229.538C141.081 234.572 138.853 239.277 135.275 242.851C133.245 244.884 130.834 246.495 128.179 247.593C125.525 248.69 122.68 249.252 119.807 249.247ZM119.807 215.816C117.131 215.815 114.538 216.741 112.469 218.438C110.4 220.134 108.982 222.496 108.459 225.12C107.935 227.744 108.337 230.468 109.597 232.829C110.857 235.19 112.896 237.041 115.367 238.067C117.838 239.093 120.589 239.231 123.15 238.457C125.711 237.682 127.925 236.044 129.414 233.821C130.903 231.598 131.576 228.927 131.317 226.264C131.057 223.601 129.883 221.11 127.994 219.215C126.92 218.137 125.644 217.283 124.239 216.7C122.834 216.118 121.328 215.818 119.807 215.82V215.816Z" fill="black"/>
<path d="M337.28 224.04C337.28 219.72 341.12 217.32 347.36 217.32C355.28 217.32 360.08 221.64 363.44 227.88L394.16 211.32C384.08 194.28 366.8 185.64 347.36 185.64C322.4 185.64 300.32 198.84 300.32 225C300.32 266.52 359.36 259.56 359.36 272.76C359.36 277.56 355.04 280.2 346.4 280.2C335.84 280.2 329.12 275.16 326 266.04L294.8 283.8C304.16 303.24 322.4 312.36 346.4 312.36C372.32 312.36 396.32 300.6 396.32 273C396.32 228.6 337.28 237.72 337.28 224.04Z" fill="black"/>
<path d="M529.494 309L484.614 249L528.294 189H486.294L450.294 241.56V141H414.294V309H450.294V255.96L488.694 309H529.494Z" fill="black"/>
<path d="M560.731 178.44C572.491 178.44 582.331 168.6 582.331 156.84C582.331 145.08 572.491 135.24 560.731 135.24C548.971 135.24 539.131 145.08 539.131 156.84C539.131 168.6 548.971 178.44 560.731 178.44ZM542.731 309H578.731V189H542.731V309Z" fill="black"/>
<path d="M649.715 275.4L695.075 213V189H603.875V222.6H646.835L601.475 285V309H697.475V275.4H649.715Z" fill="black"/>
<path d="M761.278 275.4L806.638 213V189H715.438V222.6H758.398L713.038 285V309H809.038V275.4H761.278Z" fill="black"/>
<path d="M830.544 309H866.544V133.8H830.544V309Z" fill="black"/>
<path d="M925.048 263.4H1010.25C1011.21 258.84 1011.69 254.04 1011.69 249C1011.69 212.76 985.768 185.64 950.728 185.64C912.808 185.64 886.888 213.24 886.888 249C886.888 284.76 912.328 312.36 953.368 312.36C976.168 312.36 993.928 303.96 1005.69 287.64L976.888 271.08C972.088 276.36 963.688 280.2 953.848 280.2C940.648 280.2 929.608 275.88 925.048 263.4ZM924.328 236.52C927.688 224.28 936.808 217.56 950.488 217.56C961.288 217.56 972.088 222.6 975.928 236.52H924.328Z" fill="black"/>
</svg>
