<svg width="780" height="675" viewBox="0 0 780 675" fill="none" xmlns="http://www.w3.org/2000/svg">
<path d="M358.696 123.037V87.4089C358.696 64.428 376.439 45.6345 397.78 46.8368C417.344 47.9398 432.933 65.4029 432.933 86.7122C432.933 88.7569 433.688 90.7179 435.032 92.1637C436.376 93.6095 438.199 94.4218 440.1 94.4218H470.215C471.031 94.4218 471.839 94.2489 472.593 93.913C473.347 93.5771 474.032 93.0848 474.609 92.4641C475.186 91.8435 475.643 91.1066 475.956 90.2957C476.268 89.4848 476.429 88.6157 476.429 87.7379C476.429 39.074 439.603 -0.849846 394.37 0.0137521C350.589 0.848322 315.213 39.42 315.213 86.7122V152.752L315.197 169.758C315.196 171.803 315.949 173.765 317.292 175.212C318.634 176.66 320.457 177.475 322.358 177.477L459.983 177.596C461.882 177.597 463.703 178.409 465.046 179.853C466.389 181.297 467.144 183.255 467.146 185.298V267.64C467.146 269.684 466.391 271.645 465.047 273.091C463.703 274.537 461.88 275.349 459.979 275.349H320.943C319.043 275.349 317.22 274.536 315.877 273.09C314.533 271.645 313.778 269.684 313.778 267.64V224.036C313.779 223.024 313.594 222.021 313.234 221.085C312.874 220.15 312.346 219.3 311.68 218.583C311.015 217.867 310.224 217.299 309.355 216.912C308.485 216.524 307.553 216.325 306.612 216.325H277.454C275.552 216.325 273.729 217.137 272.384 218.583C271.04 220.03 270.285 221.991 270.285 224.036V314.426C270.285 315.439 270.47 316.442 270.83 317.377C271.191 318.313 271.719 319.163 272.385 319.879C273.05 320.595 273.841 321.163 274.71 321.55C275.58 321.937 276.512 322.136 277.454 322.136H503.477C505.378 322.136 507.201 321.324 508.545 319.878C509.889 318.432 510.644 316.471 510.644 314.426V138.577C510.644 136.533 509.89 134.573 508.547 133.128C507.205 131.682 505.383 130.869 503.484 130.867L365.858 130.746C363.958 130.745 362.136 129.932 360.793 128.486C359.45 127.041 358.696 125.08 358.696 123.037Z" fill="black"/>
<path d="M358.696 123.037V87.4089C358.696 64.428 376.439 45.6345 397.78 46.8368C417.344 47.9398 432.933 65.4029 432.933 86.7122C432.933 88.7569 433.688 90.7179 435.032 92.1637C436.376 93.6095 438.199 94.4218 440.1 94.4218H470.215C471.031 94.4218 471.839 94.2489 472.593 93.913C473.347 93.5771 474.032 93.0848 474.609 92.4641C475.186 91.8435 475.643 91.1066 475.956 90.2957C476.268 89.4848 476.429 88.6157 476.429 87.7379C476.429 39.074 439.603 -0.849846 394.37 0.0137521C350.589 0.848322 315.213 39.42 315.213 86.7122V152.752L315.197 169.758C315.196 171.803 315.949 173.765 317.292 175.212C318.634 176.66 320.457 177.475 322.358 177.477L459.983 177.596C461.882 177.597 463.703 178.409 465.046 179.853C466.389 181.297 467.144 183.255 467.146 185.298V267.64C467.146 269.684 466.391 271.645 465.047 273.091C463.703 274.537 461.88 275.349 459.979 275.349H320.943C319.043 275.349 317.22 274.536 315.877 273.09C314.533 271.645 313.778 269.684 313.778 267.64V224.036C313.779 223.024 313.594 222.021 313.234 221.085C312.874 220.15 312.346 219.3 311.68 218.583C311.015 217.867 310.224 217.299 309.355 216.912C308.485 216.524 307.553 216.325 306.612 216.325H277.454C275.552 216.325 273.729 217.137 272.384 218.583C271.04 220.03 270.285 221.991 270.285 224.036V314.426C270.285 315.439 270.47 316.442 270.83 317.377C271.191 318.313 271.719 319.163 272.385 319.879C273.05 320.595 273.841 321.163 274.71 321.55C275.58 321.937 276.512 322.136 277.454 322.136H503.477C505.378 322.136 507.201 321.324 508.545 319.878C509.889 318.432 510.644 316.471 510.644 314.426V138.577C510.644 136.533 509.89 134.573 508.547 133.128C507.205 131.682 505.383 130.869 503.484 130.867L365.858 130.746C363.958 130.745 362.136 129.932 360.793 128.486C359.45 127.041 358.696 125.08 358.696 123.037Z" fill="black"/>
<path d="M401.633 239.213C408.163 232.682 408.163 222.094 401.633 215.564C395.102 209.033 384.515 209.033 377.984 215.564C371.454 222.094 371.454 232.682 377.984 239.213C384.515 245.743 395.102 245.743 401.633 239.213Z" fill="black"/>
<path d="M389.807 249.247C384.749 249.243 379.849 247.486 375.941 244.275C372.034 241.063 369.36 236.596 368.377 231.635C367.394 226.673 368.161 221.524 370.548 217.065C372.935 212.606 376.795 209.112 381.469 207.18C386.143 205.247 391.343 204.995 396.182 206.466C401.021 207.937 405.201 211.04 408.009 215.247C410.816 219.455 412.078 224.505 411.58 229.538C411.081 234.572 408.853 239.277 405.275 242.851C403.245 244.884 400.834 246.495 398.179 247.593C395.525 248.69 392.68 249.253 389.807 249.247ZM389.807 215.816C387.131 215.815 384.538 216.742 382.469 218.438C380.4 220.135 378.982 222.496 378.459 225.12C377.935 227.744 378.337 230.469 379.597 232.829C380.857 235.19 382.896 237.041 385.367 238.067C387.838 239.093 390.589 239.231 393.15 238.457C395.711 237.683 397.925 236.044 399.414 233.821C400.903 231.598 401.576 228.927 401.317 226.264C401.057 223.601 399.883 221.11 397.994 219.215C396.92 218.138 395.644 217.283 394.239 216.7C392.834 216.118 391.328 215.819 389.807 215.82V215.816Z" fill="black"/>
<path d="M46.28 491.92C46.28 497.467 54.1667 502.233 69.94 506.22C75.4867 507.433 80.5133 508.907 85.02 510.64C89.5267 512.2 94.0333 514.54 98.54 517.66C103.22 520.607 106.86 524.593 109.46 529.62C112.06 534.647 113.36 540.453 113.36 547.04C113.36 560.387 108.333 570.7 98.28 577.98C88.2267 585.087 75.8333 588.64 61.1 588.64C34.4067 588.64 16.2067 578.327 6.5 557.7L35.62 541.32C39.6067 552.587 48.1 558.22 61.1 558.22C73.06 558.22 79.04 554.493 79.04 547.04C79.04 541.493 71.1533 536.727 55.38 532.74C49.4867 531.18 44.46 529.62 40.3 528.06C36.14 526.5 31.6333 524.247 26.78 521.3C21.9267 518.18 18.2 514.28 15.6 509.6C13.1733 504.747 11.96 499.113 11.96 492.7C11.96 479.873 16.64 469.82 26 462.54C35.5333 455.087 47.32 451.36 61.36 451.36C71.9333 451.36 81.5533 453.787 90.22 458.64C98.8867 463.32 105.733 470.08 110.76 478.92L82.16 494.52C78 485.68 71.0667 481.26 61.36 481.26C57.0267 481.26 53.3867 482.3 50.44 484.38C47.6667 486.287 46.28 488.8 46.28 491.92ZM200.97 519.22L254.79 585H215.79L168.47 525.98V585H134.93V403H168.47V512.2L213.19 455H253.23L200.97 519.22ZM288.171 439.4C282.625 439.4 277.771 437.407 273.611 433.42C269.625 429.26 267.631 424.407 267.631 418.86C267.631 413.313 269.625 408.46 273.611 404.3C277.771 400.14 282.625 398.06 288.171 398.06C293.891 398.06 298.745 400.14 302.731 404.3C306.891 408.46 308.971 413.313 308.971 418.86C308.971 424.407 306.891 429.26 302.731 433.42C298.745 437.407 293.891 439.4 288.171 439.4ZM305.071 585H271.531V455H305.071V585ZM431.71 477.36L376.59 553.54H434.31V585H331.61V562.64L386.47 486.46H334.21V455H431.71V477.36ZM552.061 477.36L496.941 553.54H554.661V585H451.961V562.64L506.821 486.46H454.561V455H552.061V477.36ZM612.806 585H579.266V395.2H612.806V585ZM769.864 533.78H671.844C676.177 550.073 688.397 558.22 708.504 558.22C721.331 558.22 731.037 553.887 737.624 545.22L764.664 560.82C751.837 579.367 732.944 588.64 707.984 588.64C686.491 588.64 669.244 582.14 656.244 569.14C643.244 556.14 636.744 539.76 636.744 520C636.744 500.587 643.157 484.293 655.984 471.12C668.637 457.947 685.104 451.36 705.384 451.36C724.624 451.36 740.311 457.947 752.444 471.12C764.924 484.293 771.164 500.587 771.164 520C771.164 523.64 770.731 528.233 769.864 533.78ZM671.324 507.78H737.624C735.717 499.287 731.817 492.787 725.924 488.28C720.204 483.773 713.357 481.52 705.384 481.52C696.371 481.52 688.917 483.86 683.024 488.54C677.131 493.047 673.231 499.46 671.324 507.78Z" fill="black"/>
</svg>
