<svg width="24" height="24" viewBox="0 0 24 24" fill="none" xmlns="http://www.w3.org/2000/svg">
<path fill-rule="evenodd" clip-rule="evenodd" d="M12 0C5.373 0 0 5.373 0 12C0 18.627 5.373 24 12 24C18.627 24 24 18.627 24 12C24 5.373 18.627 0 12 0ZM12 2C17.514 2 22 6.486 22 12C22 17.514 17.514 22 12 22C6.486 22 2 17.514 2 12C2 6.486 6.486 2 12 2ZM14.692 16.889C14.853 17.004 15.06 17.032 15.245 16.962C15.43 16.892 15.567 16.734 15.607 16.542C16.042 14.5 17.096 9.331 17.491 7.474C17.521 7.334 17.472 7.189 17.362 7.095C17.252 7.002 17.099 6.975 16.963 7.025C14.867 7.801 8.41 10.223 5.771 11.2C5.603 11.262 5.494 11.423 5.5 11.6C5.506 11.777 5.625 11.93 5.796 11.981C6.98 12.335 8.534 12.828 8.534 12.828C8.534 12.828 9.259 15.021 9.638 16.136C9.685 16.275 9.795 16.386 9.939 16.423C10.084 16.461 10.237 16.422 10.345 16.32C10.953 15.746 11.893 14.859 11.893 14.859C11.893 14.859 13.679 16.168 14.692 16.889V16.889ZM9.187 12.551L10.027 15.32L10.213 13.566C10.213 13.566 13.456 10.641 15.305 8.973C15.36 8.925 15.367 8.843 15.322 8.785C15.277 8.728 15.196 8.714 15.134 8.753C12.991 10.121 9.187 12.551 9.187 12.551V12.551Z" fill="white"/>
</svg>
