<svg width="24" height="24" viewBox="0 0 24 24" fill="none" xmlns="http://www.w3.org/2000/svg">
<g clip-path="url(#clip0)">
<path d="M23.3341 11.96C22.6211 11.234 22.4621 10.131 22.9411 9.23302C23.2831 8.59302 23.3071 7.83202 23.0051 7.17102C22.7041 6.51102 22.1121 6.02902 21.4041 5.86902C20.4131 5.64402 19.6821 4.80202 19.6011 3.78802C19.5421 3.06502 19.1501 2.41002 18.5391 2.01802C17.9301 1.62502 17.1721 1.54002 16.4891 1.78902C15.5331 2.13602 14.4631 1.82102 13.8471 1.01302C13.4071 0.437023 12.7231 0.0980225 11.9971 0.0980225C11.2721 0.0980225 10.5881 0.437023 10.1481 1.01302C9.53509 1.82202 8.46509 2.13702 7.50909 1.79002C6.82709 1.54202 6.06909 1.62702 5.45909 2.01902C4.84909 2.41102 4.45609 3.06602 4.39809 3.78902C4.31609 4.80302 3.58609 5.64602 2.59509 5.87002C1.88709 6.03002 1.29509 6.51202 0.994092 7.17202C0.693092 7.83202 0.717092 8.59402 1.05909 9.23302C1.53809 10.13 1.37909 11.234 0.667092 11.96C0.158092 12.477 -0.0799078 13.202 0.0230922 13.92C0.126092 14.638 0.559092 15.267 1.19309 15.62C2.08109 16.115 2.54509 17.13 2.33709 18.125C2.19009 18.835 2.38109 19.573 2.85609 20.121C3.33209 20.67 4.03609 20.965 4.75809 20.919C5.77409 20.856 6.71109 21.459 7.07509 22.408C7.33409 23.086 7.89509 23.603 8.59209 23.807C9.28709 24.011 10.0391 23.879 10.6231 23.45C11.4421 22.847 12.5591 22.847 13.3771 23.45C13.9611 23.88 14.7131 24.012 15.4081 23.807C16.1051 23.603 16.6661 23.085 16.9261 22.408C17.2891 21.459 18.2271 20.855 19.2421 20.919C19.9661 20.965 20.6691 20.67 21.1441 20.121C21.6191 19.573 21.8111 18.835 21.6631 18.125C21.4561 17.13 21.9191 16.115 22.8081 15.62C23.4411 15.266 23.8731 14.638 23.9771 13.92C24.0811 13.202 23.8421 12.477 23.3341 11.96V11.96ZM10.7501 17.39L6.25009 13.026L8.10709 11.169L10.7501 13.675L16.3931 7.89102L18.2501 9.74802L10.7501 17.39Z" fill="white"/>
</g>
<defs>
<clipPath id="clip0">
<rect width="24" height="24" fill="white"/>
</clipPath>
</defs>
</svg>
